<svg xmlns="http://www.w3.org/2000/svg" version="1.1" xmlns:xlink="http://www.w3.org/1999/xlink" xmlns:svgjs="http://svgjs.com/svgjs" width="600" height="300" preserveAspectRatio="none" viewBox="0 0 600 300"><g clip-path="url(&quot;#SvgjsClipPath1223&quot;)" fill="none"><rect width="600" height="300" x="0" y="0" fill="rgba(114, 17, 46, 1)"></rect><circle r="50" cx="-16.25" cy="15.28" stroke="#821334" stroke-opacity="1" stroke-width="2"></circle><circle r="50" cx="204.87" cy="158.33" stroke="#821334" stroke-opacity="1" stroke-width="2"></circle><circle r="50" cx="367.45" cy="447.73" stroke="#821334" stroke-opacity="1" stroke-width="2"></circle><circle r="91.205" cx="563.24" cy="172.5" stroke="#821334" stroke-opacity="1" stroke-width="2"></circle><circle r="78.86" cx="496.56" cy="233.16" stroke="#821334" stroke-opacity="1" stroke-width="2"></circle><circle r="67.545" cx="274.61" cy="161.41" stroke="#821334" stroke-opacity="1" stroke-width="2"></circle><circle r="54.915" cx="1.74" cy="288.35" stroke="#821334" stroke-opacity="1" stroke-width="2"></circle><circle r="40.165" cx="427.24" cy="269.96" stroke="#821334" stroke-opacity="1" stroke-width="2"></circle><circle r="33.445" cx="448.45" cy="225.95" stroke="#821334" stroke-opacity="1" stroke-width="2"></circle><circle r="74.855" cx="55.32" cy="232.31" stroke="#821334" stroke-opacity="1" stroke-width="2"></circle><circle r="82.175" cx="172.09" cy="78.15" stroke="#821334" stroke-opacity="1" stroke-width="2"></circle><circle r="62.84" cx="407.07" cy="57.7" stroke="#821334" stroke-opacity="1" stroke-width="2"></circle><circle r="91.16" cx="257.07" cy="88.57" stroke="#821334" stroke-opacity="1" stroke-width="2"></circle><circle r="42.265" cx="282.69" cy="179.77" stroke="#821334" stroke-opacity="1" stroke-width="2"></circle><circle r="61.905" cx="79.4" cy="12.82" stroke="#821334" stroke-opacity="1" stroke-width="2"></circle><circle r="49.005" cx="67.65" cy="182.81" stroke="#821334" stroke-opacity="1" stroke-width="2"></circle><circle r="46.265" cx="523.6" cy="91.31" stroke="#821334" stroke-opacity="1" stroke-width="2"></circle><circle r="39.6" cx="433.79" cy="162.14" stroke="#821334" stroke-opacity="1" stroke-width="2"></circle><circle r="65.105" cx="439.33" cy="27.71" stroke="#821334" stroke-opacity="1" stroke-width="2"></circle><circle r="87.89" cx="303.38" cy="108.24" stroke="#821334" stroke-opacity="1" stroke-width="2"></circle><circle r="72.25" cx="121.21" cy="132.37" stroke="#821334" stroke-opacity="1" stroke-width="2"></circle><circle r="77.265" cx="142.01" cy="139.12" stroke="#821334" stroke-opacity="1" stroke-width="2"></circle><circle r="38.515" cx="221.73" cy="191.43" stroke="#821334" stroke-opacity="1" stroke-width="2"></circle><circle r="37.505" cx="481.27" cy="158.72" stroke="#821334" stroke-opacity="1" stroke-width="2"></circle><circle r="80.715" cx="135.15" cy="219.08" stroke="#821334" stroke-opacity="1" stroke-width="2"></circle><circle r="29.09" cx="509.35" cy="118.66" stroke="#821334" stroke-opacity="1" stroke-width="2"></circle><circle r="46.675" cx="384.52" cy="194.22" stroke="#821334" stroke-opacity="1" stroke-width="2"></circle><circle r="30.01" cx="74.98" cy="155.2" stroke="#821334" stroke-opacity="1" stroke-width="2"></circle><circle r="66.755" cx="427.15" cy="273.69" stroke="#821334" stroke-opacity="1" stroke-width="2"></circle><circle r="34.425" cx="567" cy="121.34" stroke="#821334" stroke-opacity="1" stroke-width="2"></circle><circle r="42.585" cx="135.75" cy="70.92" stroke="#821334" stroke-opacity="1" stroke-width="2"></circle><circle r="65.285" cx="213.91" cy="200.4" stroke="#821334" stroke-opacity="1" stroke-width="2"></circle><circle r="63.71" cx="523.58" cy="175.54" stroke="#821334" stroke-opacity="1" stroke-width="2"></circle><circle r="31.14" cx="583.36" cy="111.41" stroke="#821334" stroke-opacity="1" stroke-width="2"></circle><circle r="87.05" cx="221.08" cy="292.26" stroke="#821334" stroke-opacity="1" stroke-width="2"></circle><circle r="60.975" cx="297.24" cy="145.73" stroke="#821334" stroke-opacity="1" stroke-width="2"></circle><circle r="34.095" cx="193.7" cy="2.88" stroke="#821334" stroke-opacity="1" stroke-width="2"></circle><circle r="35.045" cx="465.3" cy="222.16" stroke="#821334" stroke-opacity="1" stroke-width="2"></circle><circle r="34.97" cx="510.66" cy="109.45" stroke="#821334" stroke-opacity="1" stroke-width="2"></circle><circle r="85.215" cx="346.01" cy="214.05" stroke="#821334" stroke-opacity="1" stroke-width="2"></circle><circle r="86.655" cx="577.65" cy="285.9" stroke="#821334" stroke-opacity="1" stroke-width="2"></circle><circle r="94.165" cx="64.71" cy="231.66" stroke="#821334" stroke-opacity="1" stroke-width="2"></circle><circle r="63.165" cx="496.84" cy="85.98" stroke="#821334" stroke-opacity="1" stroke-width="2"></circle><circle r="78.94" cx="372.1" cy="13.04" stroke="#821334" stroke-opacity="1" stroke-width="2"></circle><circle r="38.77" cx="511.67" cy="240.83" stroke="#821334" stroke-opacity="1" stroke-width="2"></circle><circle r="64.535" cx="538.3" cy="108.84" stroke="#821334" stroke-opacity="1" stroke-width="2"></circle><circle r="57.265" cx="164.85" cy="34.19" stroke="#821334" stroke-opacity="1" stroke-width="2"></circle><circle r="84.045" cx="25.77" cy="177.96" stroke="#821334" stroke-opacity="1" stroke-width="2"></circle><circle r="44.8" cx="493.93" cy="148.65" stroke="#821334" stroke-opacity="1" stroke-width="2"></circle><circle r="46.155" cx="450.83" cy="255.36" stroke="#821334" stroke-opacity="1" stroke-width="2"></circle><circle r="27.38" cx="593.82" cy="26.41" stroke="#821334" stroke-opacity="1" stroke-width="2"></circle><circle r="93.1" cx="353.23" cy="284.79" stroke="#821334" stroke-opacity="1" stroke-width="2"></circle><circle r="87.185" cx="24.06" cy="73.08" stroke="#821334" stroke-opacity="1" stroke-width="2"></circle><circle r="95.435" cx="471.52" cy="218.73" stroke="#821334" stroke-opacity="1" stroke-width="2"></circle><circle r="85.58" cx="535.05" cy="268.23" stroke="#821334" stroke-opacity="1" stroke-width="2"></circle><circle r="47.905" cx="576.76" cy="55.48" stroke="#821334" stroke-opacity="1" stroke-width="2"></circle><circle r="84.675" cx="374.76" cy="129.45" stroke="#821334" stroke-opacity="1" stroke-width="2"></circle><circle r="67.455" cx="542.23" cy="135.43" stroke="#821334" stroke-opacity="1" stroke-width="2"></circle><circle r="93.52" cx="463.52" cy="131" stroke="#821334" stroke-opacity="1" stroke-width="2"></circle><circle r="74.795" cx="489.58" cy="94.52" stroke="#821334" stroke-opacity="1" stroke-width="2"></circle><circle r="53.57" cx="400.58" cy="61.15" stroke="#821334" stroke-opacity="1" stroke-width="2"></circle><circle r="30.495" cx="200.17" cy="149.23" stroke="#821334" stroke-opacity="1" stroke-width="2"></circle><circle r="41.34" cx="501.63" cy="190.5" stroke="#821334" stroke-opacity="1" stroke-width="2"></circle><circle r="97.745" cx="50.41" cy="246.95" stroke="#821334" stroke-opacity="1" stroke-width="2"></circle><circle r="50.46" cx="113.67" cy="52.93" stroke="#821334" stroke-opacity="1" stroke-width="2"></circle><circle r="93.145" cx="282.23" cy="86.83" stroke="#821334" stroke-opacity="1" stroke-width="2"></circle><circle r="55.575" cx="91.59" cy="178.58" stroke="#821334" stroke-opacity="1" stroke-width="2"></circle><circle r="86.07" cx="343.97" cy="278.36" stroke="#821334" stroke-opacity="1" stroke-width="2"></circle></g><defs><clipPath id="SvgjsClipPath1223"><rect width="600" height="300" x="0" y="0"></rect></clipPath></defs></svg>