<svg xmlns="http://www.w3.org/2000/svg" version="1.1" xmlns:xlink="http://www.w3.org/1999/xlink" xmlns:svgjs="http://svgjs.com/svgjs" width="1440" height="560" preserveAspectRatio="none" viewBox="0 0 1440 560"><g mask="url(&quot;#SvgjsMask11225&quot;)" fill="none"><rect width="1440" height="560" x="0" y="0" fill="rgba(230, 231, 233, 1)"></rect><use xlink:href="#SvgjsG11253" transform="translate(0, 0)" fill="rgba(205, 205, 205, 1)"></use><use xlink:href="#SvgjsG11253" transform="translate(570, 0)" fill="rgba(205, 205, 205, 1)"></use><use xlink:href="#SvgjsG11253" transform="translate(1140, 0)" fill="rgba(209, 209, 209, 1)"></use></g><defs><mask id="SvgjsMask11225"><rect width="1440" height="560" fill="#ffffff"></rect></mask><g id="SvgjsG11235"><path d="M14.667 10.461V12.947h1.313V9.231H1.302V3.854A0.652 0.652 0 0 0 0.65 3.2C0.29 3.2 0 3.494 0 3.854V12.947h1.302V10.462h13.365z"></path><path d="M3.306 6.475a1.179 1.179 0 0 0 1.179-1.182c0-0.65-0.527-1.178-1.179-1.177s-1.179 0.528-1.179 1.177a1.179 1.179 0 0 0 1.18 1.182z"></path><path d="M16 8.254l-0.004-1.624c-0.004-0.515-0.437-0.871-0.94-0.932L5.79 4.774c-0.018-0.004-0.035-0.012-0.052-0.012a0.581 0.581 0 0 0-0.58 0.581v1.75H2.735a0.582 0.582 0 0 0-0.584 0.581c0 0.323 0.26 0.581 0.584 0.581H16z"></path></g><g id="SvgjsG11227"><path d="M8.312 8.242l0 0.521c0.492-0.069 0.443-0.509 0-0.52v-0.001z m-0.51-0.627V7.155c-0.365 0.064-0.358 0.454 0 0.46z"></path><path d="M8.055 5.946c-1.128 0-2.044 0.915-2.044 2.043 0 1.129 0.915 2.044 2.045 2.044 1.129 0 2.043-0.915 2.043-2.044 0-1.128-0.915-2.043-2.043-2.043l-0.001 0z m0.251 3.336v0.364h-0.507v-0.37c-0.29-0.043-0.822-0.323-0.855-0.924h0.534c0.034 0.154 0.078 0.34 0.321 0.409l-0.001-0.605c-0.334-0.048-0.814-0.194-0.814-0.73 0-0.602 0.666-0.789 0.813-0.789v-0.364h0.502v0.364c0.338 0.02 0.83 0.302 0.829 0.84h-0.528c-0.014-0.16-0.137-0.317-0.296-0.327v0.554c0.403 0.041 0.877 0.195 0.877 0.738 0 0.473-0.475 0.818-0.877 0.84h0.002z"></path><path d="M0 11.93h16V4H0v7.93z m1.508-1.508V5.508h12.984V10.422H1.508z"></path></g><g id="SvgjsG11249"><path d="M14.704 13.605c0 0.355-0.294 0.64-0.646 0.64H3.52v0.432h10.536a1.075 1.075 0 0 0 1.082-1.069l-0.432-0.003z m-3.147-9.808A1.059 1.059 0 1 0 11.552 1.68a1.059 1.059 0 0 0 0.005 2.118M4.848 12.912L1.323 9.376v0.619l3.28 3.29c0.376 0.408 1.021-0.064 1.021-0.064l-0.309-0.331s-0.304 0.2-0.464 0.032l-0.006-0.012z m0.112-6.664H1.355v0.432H4.96v-0.432z m9.744-1.029l0.411 0.173L11.024 13.629h-0.454L14.704 5.219z"></path><path d="M7.912 4.584l-1.648 1.901a0.531 0.531 0 1 1-0.765-0.736l1.776-2.045a0.533 0.533 0 0 1 0.41-0.192H10.256a0.688 0.688 0 0 1 0.485 0.195L12.379 5.344l1.36-1.355a0.549 0.549 0 0 1 0.779 0.768L12.88 6.411c-0.496 0.496-0.896 0.074-0.896 0.074l-1.008-1.008-1.568 1.814 1.44 1.44s0.301 0.282 0.128 0.842L10.17 13.168a0.688 0.688 0 1 1-1.333-0.31l0.662-2.949-1.632-1.591-1.408 1.568s-0.229 0.28-0.832 0.26l-2.851 0.006a0.688 0.688 0 0 1-0.68-0.536 0.672 0.672 0 0 1 0.685-0.832l2.453 0.011 3.632-4.208-0.949-0.003z"></path></g><g id="SvgjsG11228"><path d="M7.648 0h0.716v2.72H7.648V0z m-0.042 13.226h0.715v2.72h-0.715v-2.72z m5.674-5.779H16v0.714H13.28v-0.714zM0 7.403h2.72v0.716H0V7.403zM1.036 4.064l0.347-0.625 2.376 1.318-0.347 0.626L1.036 4.064z m2.852-2.908l0.606-0.381 1.443 2.308-0.606 0.377-1.443-2.304zM10.357 12.627l0.617-0.356 1.36 2.356-0.618 0.357-1.359-2.357z m2.079-1.903l0.347-0.624 2.38 1.317-0.349 0.627-2.378-1.32zM4.336 15.016l-0.625-0.347 1.318-2.38 0.627 0.346L4.336 15.016zM1.175 11.994L0.798 11.388l2.306-1.443 0.378 0.606-2.307 1.443zM12.692 5.611l-0.359-0.621 2.355-1.36 0.359 0.621-2.355 1.36zM10.873 3.572l-0.627-0.348 1.319-2.377 0.626 0.347-1.318 2.378z m-7.283 4.392c0-2.44 1.979-4.419 4.419-4.419 2.438 0 4.415 1.979 4.415 4.419S10.447 12.381 8.009 12.381c-2.44 0-4.419-1.977-4.419-4.417"></path></g><g id="SvgjsG11226"><path d="M2.796 14.654h-1.184C0.792 14.653 0.001 14.052 0 13.006c0 0 0.001-7.471 0-7.494 0.001-0.926 0.773-1.629 1.612-1.63h1.184v10.772z m7.448-10.754V2.352c0.004-0.558-0.49-0.914-1.093-0.91 0 0-2.303-0.004-2.294 0-0.6-0.004-1.103 0.352-1.102 0.91v1.548H3.597v10.772h8.823V3.9h-2.176z m-0.81 0H6.547v-1.593h2.887v1.593z m3.779 10.754h1.184c0.814-0.002 1.605-0.602 1.603-1.648 0 0 0.003-7.471 0-7.494 0.003-0.926-0.77-1.63-1.602-1.631h-1.184v10.772z"></path></g><g id="SvgjsG11250"><path d="M0.608 0.571a0.105 0.105 0 0 1 0.042-0.142L1.412 0.013a0.104 0.104 0 0 1 0.143 0.042l0.305 0.558c1.157-0.347 2.439 0.146 3.041 1.249l-1.478 0.807c0.244 0.447 0.079 1.009-0.369 1.254a0.926 0.926 0 0 1-1.255-0.368L0.32 4.361C-0.283 3.259-0.006 1.915 0.914 1.13L0.608 0.571z m10.416 10.055H16V15.77H11.024z m-0.57 2.571H6.435c-0.7 0-1.27-0.569-1.27-1.269 0-0.702 0.57-1.27 1.27-1.27h4.019v2.539z m-8.664 1.03a0.515 0.515 0 0 1 0.514-0.514h8.15V15.77h-8.664v-1.543z"></path><path d="M1.81 11.665a1.535 1.532 0 1 0 3.07 0 1.535 1.532 0 1 0-3.07 0"></path><path d="M13.27 7.373l-0.863-2.458c-0.167-0.463-0.489-0.825-1.397-0.825H7.024c-0.908 0-1.23 0.362-1.397 0.825l-0.863 2.458c-0.064 0.159-0.098 0.516 0.254 0.754l2.03 1.337a0.642 0.642 0 1 0 0.708-1.072l-0.976-0.643-0.635-0.419 0.453-1.251h0.628l-0.368 1.015 1.223 0.806a1.222 1.222 0 0 1 0.529 0.781 1.222 1.222 0 0 1-0.178 0.927 1.24 1.24 0 0 1-0.261 0.282H9.864a1.26 1.26 0 0 1-0.261-0.282 1.226 1.226 0 0 1-0.179-0.927 1.225 1.225 0 0 1 0.529-0.781l1.224-0.806-0.369-1.014h0.628l0.454 1.25-0.635 0.42-0.976 0.642c-0.296 0.195-0.379 0.595-0.183 0.891s0.595 0.378 0.892 0.182l2.029-1.337c0.351-0.239 0.318-0.596 0.254-0.755zM9.414 1.684a0.607 0.607 0 0 1-0.551 0.352 0.608 0.608 0 0 1-0.552-0.352h-1.112a1.688 1.688 0 0 0-0.029 0.3c0 0.937 0.761 1.696 1.699 1.696 0.938 0 1.699-0.759 1.699-1.696 0-0.103-0.011-0.203-0.029-0.3h-1.125zM8.273 1.283a0.608 0.608 0 0 1 0.59-0.459A0.607 0.607 0 0 1 9.451 1.283h0.963c-0.267-0.587-0.858-0.996-1.545-0.996-0.687 0-1.278 0.409-1.546 0.996h0.95z"></path></g><g id="SvgjsG11245"><path d="M0.267 14.413h15.466V16H0.267z m0.632-1.535h13.998v0.872H0.899z m1.139-7.74h2.352v7.056h-2.352z m4.693 0h2.352v7.056h-2.352z m4.513 0h2.352v7.056H11.244zM0 3.595L8 0l8 3.595-0.007 0.927L0 4.535z"></path></g><g id="SvgjsG11240"><path d="M7.634 3.849c0.822 0 1.487-0.665 1.487-1.485S8.456 0.88 7.634 0.88c-0.821 0-1.487 0.664-1.488 1.484s0.666 1.485 1.488 1.485zM12.166 13.885H0.308c-0.334 0-0.3 0.262-0.3 0.262v0.437s-0.03 0.568 0.553 0.568h14.848c0.587 0 0.555-0.555 0.555-0.555v-1.209s-0.05-0.383-0.5-0.383h-1.448c-0.496 0-0.906 0.88-1.851 0.88z m1.153-2.681c0 0.738 0.6 1.337 1.34 1.336 0.739 0 1.341-0.599 1.341-1.336 0-0.74-0.602-1.338-1.341-1.338-0.74 0-1.34 0.597-1.34 1.338zM8.939 8.653a0.953 0.953 0 0 1-0.573 0.596L7.173 9.691l0.44 0.437h2.015l-0.002-3.083-0.674 1.59c-0.003 0.008-0.009 0.012-0.013 0.018z"></path><path d="M11.832 10.861H7.667l-1.004-0.981-0.699 0.258c-0.518 0.185-1.15-0.098-1.345-0.613-0.115-0.32-0.099-0.677 0.093-0.937-0.086-0.004-2.526 0-2.526 0-0.406 0-0.736 0.326-0.736 0.731 0 0.406 0.33 0.723 0.736 0.723h2.484l0.986 1.491-5.087 0.409A0.734 0.734 0 0 0 0 12.657a0.734 0.734 0 0 0 0.733 0.736l5.707 0a1.044 1.044 0 0 1-0.159-0.549 1.054 1.054 0 0 1 1.053-1.054h2.283l1.852-0.386 0.102 0.491-1.901 0.397H7.335a0.551 0.551 0 0 0-0.551 0.552 0.55 0.55 0 0 0 0.54 0.549l4.518 0.001c0.699-0.005 1.26-0.569 1.26-1.266a1.267 1.267 0 0 0-1.27-1.267z"></path><path d="M5.876 9.678a0.582 0.582 0 0 1-0.767-0.299 0.582 0.582 0 0 1 0.299-0.768l2.12-0.796 0.656-1.563-0.427-0.158L7.2 7.433l-1.614 0.595V6.392l-1.578 1.723-1.786-0.002s3.125-3.426 3.223-3.528c0.13-0.129 0.426-0.342 0.984-0.341h2.006c1.14 0 1.36 1.137 1.127 1.724L8.512 8.513a0.591 0.591 0 0 1-0.338 0.319l-2.298 0.846z"></path></g><g id="SvgjsG11233"><path d="M8.053 1.907h-2.355c-0.425 0.001-0.41 0.631 0 0.628h2.355v0.322h-2.355c-0.423-0.003-0.408 0.627 0 0.628h2.355V3.814h-2.355c-0.423 0-0.408 0.63 0 0.628h2.355v0.314h-2.355c-0.414 0.002-0.408 0.632 0 0.635h2.355v0.314h-2.355c-0.414-0.002-0.416 0.628 0 0.627h2.355v0.313h-2.355c-0.414 0.002-0.416 0.632 0 0.628h2.355V7.596h-2.355c-0.414-0.003-0.416 0.627 0 0.628h2.355v0.314h-2.355c-0.414-0.001-0.408 0.629 0 0.627h2.355v6.116c0.001 0.931 1.425 0.915 1.429 0V0.973C9.478 0.548 9.126 0.01 8.548 0.008h-2.85c-0.426 0-0.41 0.63 0 0.628l2.355 0.008v0.314h-2.355c-0.425-0.003-0.409 0.627 0 0.627h2.355v0.322z m-2.731 12.346c-0.075 0.515 0.1 1.443 0.47 1.782 0.383 0.35 0.839-0.098 0.653-0.463-0.192-0.359-0.432-0.556-0.227-1.421l-0.895 0.102z"></path><path d="M4.576 11.248v-4.16L3.783 0.227C3.765 0.046 3.652 0.003 3.548 0c-0.108 0.003-0.22 0.046-0.244 0.227l-0.769 6.86v4.16C1.09 10.49 0.001 11.667 0 12.739c0.001 0.953 0.704 1.736 1.703 1.734 1.007 0.002 1.693-0.876 1.696-1.735V8.554h0.321v4.185c-0.002 0.992 0.8 1.725 1.664 1.727 1.077-0.002 1.765-0.763 1.766-1.72-0.001-1.087-1.123-2.256-2.574-1.498zM1.695 13.602c-0.473-0.002-0.855-0.384-0.855-0.856 0.001-0.471 0.383-0.853 0.856-0.855 0.47 0.002 0.852 0.384 0.856 0.855-0.003 0.472-0.385 0.854-0.855 0.856z m3.76 0a0.861 0.861 0 0 1-0.856-0.856 0.86 0.86 0 0 1 0.855-0.855 0.859 0.859 0 0 1 0.855 0.855 0.859 0.859 0 0 1-0.855 0.856z m7.763-11.93A0.802 0.802 0 0 0 14.019 0.871c0-0.444-0.359-0.803-0.801-0.801A0.797 0.797 0 0 0 12.417 0.871c-0.001 0.441 0.357 0.8 0.801 0.801z m-0.856 0.172c-0.57 0.004-1.027 0.467-1.028 1.044v2.457c0.002 0.482 0.702 0.482 0.698 0v-2.245h0.173v6.161c-0.004 0.636 0.929 0.618 0.926 0V5.682h0.165v3.579c-0.002 0.618 0.935 0.636 0.934 0V3.1h0.165v2.245c-0.002 0.485 0.695 0.485 0.691 0V2.904c0.003-0.534-0.411-1.055-1.037-1.052l-1.685-0.008z"></path></g><g id="SvgjsG11252"><path d="M15.088 16c-0.331 0-0.646-0.076-0.927-0.204a2.26 2.26 0 0 0-0.957-0.216c-0.342 0-0.666 0.08-0.958 0.216A2.25 2.25 0 0 1 11.316 16c-0.331 0-0.646-0.076-0.926-0.204-0.294-0.136-0.616-0.216-0.958-0.216-0.342 0-0.669 0.08-0.958 0.216A2.25 2.25 0 0 1 7.545 16c-0.33 0-0.646-0.076-0.931-0.204a2.244 2.244 0 0 0-0.954-0.216c-0.342 0-0.669 0.08-0.957 0.216A2.246 2.246 0 0 1 3.776 16c-0.331 0-0.646-0.076-0.931-0.204a2.243 2.243 0 0 0-0.954-0.216c-0.342 0-0.669 0.08-0.957 0.216A2.267 2.267 0 0 1 0 16v-1.408c0.331 0 0.65-0.076 0.933-0.206a2.304 2.304 0 0 1 0.958-0.212c0.338 0 0.666 0.078 0.953 0.211a2.239 2.239 0 0 0 0.932 0.205 2.218 2.218 0 0 0 0.926-0.206 2.306 2.306 0 0 1 0.958-0.212c0.338 0 0.666 0.08 0.954 0.212a2.236 2.236 0 0 0 0.93 0.206c0.331 0 0.646-0.076 0.929-0.206 0.288-0.132 0.614-0.212 0.957-0.212s0.663 0.08 0.958 0.212a2.205 2.205 0 0 0 0.927 0.206c0.331 0 0.646-0.076 0.929-0.206 0.292-0.132 0.616-0.212 0.958-0.212 0.34 0 0.667 0.079 0.957 0.212a2.205 2.205 0 0 0 0.928 0.208v1.408zM4.27 9.094c0.702 0 1.274-0.578 1.273-1.289 0-0.71-0.571-1.283-1.273-1.284-0.7 0-1.271 0.573-1.271 1.284s0.573 1.288 1.272 1.288m0.18 4.451c-0.2 0.344-0.638 0.462-0.979 0.256-0.342-0.2-0.458-0.646-0.259-0.99L6.165 7.672a1.175 1.175 0 0 1 0.454-0.459l3.794-2.325L12.988 0.453C13.232 0.021 13.778-0.128 14.205 0.119c0.425 0.251 0.571 0.801 0.327 1.23L11.445 6.664a1.163 1.163 0 0 1-0.456 0.458L6.512 9.936 4.451 13.544z"></path></g><g id="SvgjsG11236"><path d="M13.113 6.956a0.719 0.719 0 1 0 1.437 0 0.719 0.719 0 1 0-1.437 0"></path><path d="M8.74 3.712a1.025 1.025 0 0 0 1.025-1.025A1.026 1.026 0 0 0 8.74 1.663a1.025 1.025 0 0 0 0 2.049z m-5.559 0.007c-0.575 0-1.04-0.462-1.04-1.032C2.143 2.117 2.606 1.655 3.182 1.655c0.574 0 1.04 0.462 1.04 1.032s-0.466 1.032-1.04 1.032z m11.692 4.31h-1.94c-0.009 0-0.648-0.058-0.648-0.058l-0.813-2.832C11.145 4 10.189 4.035 10.189 4.035H7.56s-0.954-0.035-1.281 1.104l-0.401 1.395-0.4-1.395c-0.328-1.139-1.282-1.105-1.282-1.104h-2.034s-0.955-0.035-1.282 1.104L0.061 7.993c-0.078 0.267 0.068 0.47 0.301 0.537 0.233 0.067 0.471-0.051 0.532-0.264l0.798-2.78 0.389-0.001-1.164 4.815h1.029v3.42a0.509 0.509 0 0 0 0.509 0.511 0.512 0.512 0 0 0 0.511-0.511V10.3h0.431v3.42a0.51 0.51 0 0 0 0.509 0.511 0.512 0.512 0 0 0 0.512-0.512V10.299h1.011l-1.152-4.815 0.387 0.001L5.453 8.237c0.013 0.047 0.034 0.089 0.061 0.128 0.077 0.116 0.211 0.182 0.363 0.176 0.15 0.005 0.284-0.059 0.361-0.175a0.373 0.373 0 0 0 0.067-0.141l0.785-2.74 0.358 0v8.136a0.603 0.603 0 0 0 0.604 0.601 0.601 0.601 0 0 0 0.6-0.601v-4.629h0.445v4.629a0.601 0.601 0 0 0 0.601 0.601c0.333 0 0.605-0.269 0.605-0.601v-8.136l0.389 0 0.764 2.781c0.04 0.137 0.155 0.228 0.292 0.262 0.006 0.002 0.009 0.006 0.015 0.005 0.12 0.028 0.681 0.186 1.094 0.304V13.883a0.423 0.423 0 0 0 0.845 0V11.362H14.032v2.521c0 0.233 0.189 0.423 0.422 0.423s0.424-0.189 0.424-0.423V9.17h0.326v1.598c0 0.174 0.142 0.316 0.314 0.316 0.174 0 0.311-0.142 0.311-0.316V8.951c0-0.509-0.447-0.921-0.956-0.922z"></path></g><g id="SvgjsG11251"><path d="M4.83 7.808l-1.579 1.253-2.019 1.547c-0.576 0.452-1.048-0.092-1.048-0.092-0.448-0.588 0.067-0.973 0.066-0.973l2.517-1.968s0.275-0.287 0.999-0.081l1.064 0.315m2.949-2.516c-0.79 0-1.427-0.637-1.427-1.427s0.637-1.434 1.427-1.433 1.432 0.643 1.432 1.433-0.641 1.427-1.432 1.427M4.24 13.121a0.765 0.765 0 0 0-0.765-0.765 0.764 0.764 0 0 0-0.765 0.765 0.764 0.764 0 0 0 0.765 0.765 0.764 0.764 0 0 0 0.765-0.765m7.083 0a0.765 0.765 0 0 0-0.765-0.765c-0.421 0-0.763 0.342-0.763 0.765a0.764 0.764 0 1 0 1.528 0m-8.782-1.504c-0.098-0.271-0.14-0.566-0.073-0.865a1.55 1.55 0 0 1 0.508-0.824l10.582-8.423C13.816 1.316 14.132 1.2 14.476 1.2A1.522 1.522 0 0 1 16 2.726c0 0.492-0.224 0.928-0.58 1.209-0.126 0.11-0.31 0.096-0.417-0.031a0.298 0.298 0 0 1 0.034-0.427c0.228-0.167 0.372-0.442 0.372-0.751 0-0.515-0.419-0.934-0.932-0.934-0.219 0-0.411 0.073-0.569 0.19L10.833 4.432l-1.609 4.656 0.976 2.319c0.114-0.026 0.236-0.047 0.358-0.047 0.975 0 1.764 0.79 1.763 1.761 0 0.977-0.788 1.762-1.763 1.762a1.758 1.758 0 0 1-1.76-1.762 1.744 1.744 0 0 1 0.828-1.49L8.923 9.952l-0.059 0.179c-0.214 0.659-0.926 1.019-1.584 0.8l-3.266-1.077-0.638 0.509a0.95 0.95 0 0 0-0.316 0.507c-0.043 0.19-0.012 0.373 0.051 0.537 0.114-0.022 0.24-0.047 0.364-0.048 0.971 0 1.76 0.79 1.76 1.762 0 0.978-0.789 1.762-1.76 1.762s-1.764-0.785-1.764-1.762c0.001-0.637 0.323-1.196 0.83-1.504"></path></g><g id="SvgjsG11229"><path d="M7.626 3.541A1.056 1.056 0 1 0 7.622 1.424a1.056 1.056 0 0 0 0.004 2.117m-1.786 0.176a0.304 0.304 0 0 0-0.224-0.368l-0.88-0.208a0.301 0.301 0 0 0-0.368 0.217L3.632 6.421a0.304 0.304 0 0 0 0.224 0.368l0.883 0.211c0.16 0.04 0.325-0.059 0.362-0.224L5.84 3.712z m4.064 10.902v0.016a0.243 0.243 0 0 0 0.483 0.032l1.776-9.629v-0.022a0.24 0.24 0 0 0-0.24-0.24c-0.123 0-0.218 0.093-0.243 0.211L9.904 14.618zM4 13.987a0.741 0.741 0 0 0 1.443 0.363l1.28-5.292 1.219 5.259a0.741 0.741 0 0 0 1.447-0.346L7.715 6.986l0.144-0.616 0.109 0.486c0.099 0.315 0.387 0.347 0.387 0.347l1.722 0.439a0.507 0.507 0 0 0 0.224-0.992l-1.493-0.375-0.41-1.664c-0.197-0.928-1.085-0.906-1.084-0.905-0.864-0.021-1.078 0.885-1.079 0.884L4 13.987z" fill-rule="evenodd"></path></g><g id="SvgjsG11248"><path d="M1.12 8.836c1.001-1.179 2.827-2.005 4.388-1.743 0.174-2.151-0.071-4.156 1-6.133C3.189 1.173 1.648 6.247 1.12 8.836M12.892 5.07c0.697-0.83 2.347-1.253 3.213-0.476C13.849 1.44 11.058-0.583 7.086 0.764c3.102 0.942 5.276 3.84 5.805 4.306"></path><path d="M12.267 5.198C11.182 3.684 7.769 1.266 7.019 1.417c-0.8 0.16-1.022 4.702-0.95 5.676 0.475-0.892 1.202-1.564 2.045-1.984l3.461 9.423 0.475-0.12-3.494-9.493c1.156-0.427 2.484-0.391 3.712 0.279"></path></g><g id="SvgjsG11237"><path d="M12.872 14.056H9.025v-5.485L15.968 0H0l7.07 8.528v5.528h-3.773c-1.304 0.003-1.304 1.944 0 1.944H12.872c1.296 0 1.285-1.942 0-1.944zM8.021 4.809c-0.001-0.682 0.553-1.236 1.237-1.237 0.684 0 1.239 0.555 1.236 1.237 0.003 0.687-0.552 1.241-1.236 1.236-0.684 0.004-1.238-0.55-1.237-1.236z"></path></g><g id="SvgjsG11232"><path d="M8.688 6.116c0.878 0.204 1.538 0.96 1.538 1.857v6.893c0 0.213-0.183 0.384-0.402 0.384H5.872a0.395 0.395 0 0 1-0.4-0.384V7.973c0-0.9 0.654-1.657 1.54-1.857V3.031h1.676V6.116zM7.01 1.671h1.676v0.665h-1.676V1.671z"></path></g><g id="SvgjsG11238"><path d="M7.45 12.652S6.4 11.121 3.725 11.121C1.274 11.121 0 11.833 0 11.833V1.937s1.274-0.712 3.725-0.729C6.4 1.19 7.45 2.756 7.45 2.756V12.652z m1.087 0s1.05-1.531 3.725-1.531c2.451 0 3.725 0.712 3.725 0.713V1.937s-1.274-0.712-3.725-0.729c-2.675-0.017-3.725 1.548-3.725 1.548v9.896z"></path><path d="M8.012 15.733S6.4 13.411 3.725 13.411c-2.451 0-3.725 0.712-3.725 0.712v-1.186s1.274-0.712 3.725-0.729c2.675-0.018 4.287 2.34 4.287 2.34V15.733z m0 0s1.612-2.323 4.287-2.323c2.451 0 3.725 0.712 3.725 0.712v-1.185s-1.274-0.712-3.725-0.729c-2.675-0.019-4.287 2.339-4.287 2.339v1.185z"></path></g><g id="SvgjsG11239"><path d="M11.406 2.678H4.629C0.382 2.678 0.682 5.459 0.682 5.459h14.67S15.66 2.678 11.406 2.678zM4.629 13.447h6.777c4.254 0 3.947-2.789 3.946-2.789H0.682s-0.3 2.789 3.947 2.789z m10.087-4.135a1.259 1.259 0 0 0 1.259-1.259c0-0.69-0.562-1.252-1.259-1.252H1.259C0.566 6.801 0 7.363 0 8.052a1.262 1.262 0 0 0 1.259 1.26h13.457z" fill-rule="evenodd"></path></g><g id="SvgjsG11231"><path d="M9.46 6.313c-1.577 0-2.86 1.283-2.86 2.86s1.283 2.86 2.86 2.86 2.86-1.283 2.86-2.86-1.283-2.86-2.86-2.86z"></path><path d="M13.26 3.839l-0.624-1.912h-6.352L5.661 3.839H0v10.668h16v-10.668H13.26zM3.744 6.743H1.543v-1.176H3.744v1.176z m5.716 6.624c-2.312 0-4.193-1.881-4.193-4.194s1.881-4.194 4.193-4.193 4.193 1.881 4.194 4.193-1.88 4.194-4.193 4.194z"></path></g><g id="SvgjsG11242"><path d="M15.065 12.151H0.02c0 1.333 1.015 1.95 1.83 1.95h11.386c0.975 0 1.83-0.767 1.829-1.951zM12.853 2.166H1.869v7.208c0 0.976 0.843 1.75 1.755 1.75h7.121c1.031 0 1.731-0.863 1.731-1.749V8.773c2.031 0 3.505-1.527 3.505-3.303 0-1.815-1.445-3.303-3.126-3.303z m1.832 3.305c0 1.036-0.763 2.025-2.21 1.931V3.519l0.378 0 0 0.001c1.391 0 1.837 1.318 1.832 1.952v-0.001z"></path></g><g id="SvgjsG11243"><path d="M8.312 4.802l0 0.521c0.492-0.069 0.443-0.509 0-0.52z m-0.51-0.627V3.715c-0.365 0.064-0.358 0.454 0 0.46z"></path><path d="M8.055 2.506c-1.128 0-2.044 0.915-2.044 2.043 0 1.129 0.915 2.044 2.045 2.044 1.129 0 2.043-0.915 2.043-2.044 0-1.128-0.915-2.043-2.043-2.043z m0.251 3.336v0.364h-0.507v-0.37c-0.29-0.043-0.822-0.323-0.855-0.924h0.534c0.034 0.154 0.078 0.34 0.321 0.409l-0.001-0.605c-0.334-0.048-0.814-0.194-0.814-0.73 0-0.602 0.666-0.789 0.813-0.789v-0.364h0.502v0.364c0.338 0.02 0.83 0.302 0.83 0.84h-0.528c-0.014-0.16-0.137-0.317-0.296-0.327v0.554c0.403 0.041 0.877 0.195 0.877 0.738 0 0.473-0.475 0.818-0.877 0.84z m1.733 5.54c-1.129 0-2.044 0.915-2.043 2.044s0.915 2.043 2.043 2.043 2.043-0.915 2.043-2.043c0-1.129-0.915-2.044-2.043-2.044zM10.955 13.739v0.499h-0.636v0.701h-0.542V14.238h-0.68v-0.49h0.688l-0.894-1.576h0.593l0.551 0.972 0.597-0.972h0.547L10.293 13.739h0.662z m-7.36-4.673c-1.129 0-2.044 0.915-2.043 2.044S2.467 13.154 3.595 13.154s2.044-0.915 2.044-2.044-0.915-2.044-2.044-2.044z m0.065 1.654v0.486h-0.367v1.165H2.773v-1.162h-0.31v-0.484h0.31v-0.436c0-0.168 0.163-0.68 0.777-0.68 0.627 0 0.762 0.494 0.762 0.908h-0.511c0-0.265-0.037-0.404-0.246-0.404-0.226 0-0.262 0.155-0.262 0.4v0.206h0.366z m1.173 0.482c-0.421 0.052-0.516 0.276-0.517 0.554v0.616h-0.516V10.72h0.516v0.258c0.112-0.129 0.241-0.267 0.517-0.267v0.491z"></path><path d="M0 0.56v7.93h9.395c0.178 0.948 1.009 1.666 2.009 1.666s1.83-0.718 2.008-1.666H16V0.56H0z m11.195 7.221h0.464v0.441h-0.378c0.047 0.403-0.185 0.572-0.198 0.707h1.264v0.441H10.456v-0.441c0.215-0.144 0.327-0.508 0.258-0.703h-0.396v-0.448h0.318c-0.086-0.203-0.086-0.27-0.086-0.448s0.147-0.758 0.912-0.754c0.705 0.004 0.91 0.584 0.91 1l-0.537 0c-0.036-0.251-0.135-0.458-0.368-0.458-0.357 0-0.358 0.224-0.357 0.301s0.013 0.262 0.086 0.364z m3.297-0.798h-1.386c-0.366-0.551-0.992-0.914-1.703-0.914S10.067 6.432 9.701 6.982H1.508V2.068h12.984V6.982z"></path></g><g id="SvgjsG11241"><path d="M7.47 6.623c0 0.659-0.601 1.365-1.379 1.365v6.827c0 1.58-2.152 1.58-2.152 0V7.986c-0.759 0-1.419-0.584-1.419-1.459V0.403c0-0.533 0.771-0.553 0.771 0.02v4.528h0.645V0.382c0-0.49 0.742-0.522 0.742 0.021v4.548h0.666V0.388c0-0.512 0.72-0.532 0.72 0.02v4.543h0.656V0.388c0-0.507 0.752-0.527 0.752 0.02V6.621z m5.744-4.795v12.982c0 1.545-2.158 1.522-2.157 0v-4.915h-1.149V1.829c0-2.427 3.307-2.427 3.306 0z"></path></g><g><path d="M3.044 12.188V8.93c0-2.836 2.475-5.244 5.463-5.245 3.022-0.004 5.465 2.352 5.465 5.245v3.258h1.351V8.93C15.332 5.276 12.27 2.325 8.51 2.325 4.777 2.325 1.689 5.333 1.689 8.93v3.258h1.355z"></path><path d="M5.463 14.702l-1.781 0.006V9.593h1.785c0.921 2.372 0 5.111 0 5.111m6.049-5.109H13.298V14.702l-1.783 0.006c-0.921-2.373 0-5.113 0-5.113"></path></g><g id="SvgjsG11247"><path d="M11.46 4.548H9.536l1.547-0.623a0.324 0.324 0 0 0-0.24-0.604l-1.743 0.706 1.423-1.412a0.331 0.331 0 0 0 0.096-0.231 0.324 0.324 0 0 0-0.551-0.231l-2.002 1.991 0.009-2.827a0.32 0.32 0 0 0-0.32-0.32H7.751c-0.178 0-0.32 0.142-0.323 0.32l-0.009 2.827c-0.645-0.649-1.796-1.813-1.796-1.813a0.325 0.325 0 0 0-0.459 0 0.325 0.325 0 0 0 0 0.458l1.25 1.263-1.801-0.72a0.324 0.324 0 1 0-0.238 0.6l1.55 0.619H4.066a0.484 0.484 0 0 0-0.486 0.484v10.311c0 0.267 0.217 0.48 0.486 0.48h7.395c0.267 0 0.48-0.213 0.48-0.48v-10.311c0-0.267-0.213-0.484-0.48-0.484z m-0.484 4.312H8.075v-3.342h2.901v3.342z m-3.548 0h-2.88v-3.342h2.88v3.342z m-2.88 0.648h2.88v5.347h-2.88V9.508z m3.527 0h2.901v5.347H8.075V9.508z" fill-rule="evenodd"></path></g><g id="SvgjsG11246"><path d="M8 14.66l5.904-5.908c1.836-1.836 1.8-4.512 0.132-6.174A4.268 4.268 0 0 0 8 2.58a4.264 4.264 0 0 0-6.03-0.02C0.3 4.24 0.26 6.92 2.1 8.744L8 14.66z"></path></g><g id="SvgjsG11230"><path d="M8.067-0.016c-3.304 0-5.982 2.678-5.982 5.982 0 5.588 5.982 10.054 5.982 10.054s5.982-4.466 5.982-10.054c0-3.304-2.678-5.982-5.982-5.982z m0 8.625c-1.46 0-2.643-1.183-2.643-2.643S6.607 3.323 8.067 3.323s2.643 1.183 2.643 2.643S9.527 8.609 8.067 8.609z"></path></g><g id="SvgjsG11234"><path d="M6.837 0.883c0.002-1.183 1.782-1.183 1.784 0.033v4.953L15.558 10.047v1.826L8.654 9.605V13.307l1.593 1.25V16L7.787 15.242 5.32 16v-1.443l1.584-1.25V9.605L0 11.873V10.047l6.837-4.178V0.883z"></path></g><g id="SvgjsG11244"><path d="M8.762 15.71c0.785-0.343 1.152-0.297 1.795 0.042 0.651 0.339 1.298 0.339 2.065-0.051 0.759-0.389 1.38-0.167 1.729 0.043 0.285 0.174 0.573 0.244 1.007 0.243v-1.553c-0.652-0.003-0.932-0.226-0.932-0.226-0.672-0.413-1.288-0.33-2.131 0.108-0.485 0.252-1.25 0.186-1.796-0.092-0.742-0.394-1.165-0.298-1.947 0.051-0.607 0.269-1.154 0.268-1.754 0-0.786-0.35-1.189-0.444-1.938-0.051-0.539 0.278-1.316 0.344-1.796 0.092-0.848-0.439-1.453-0.522-2.123-0.108 0 0-0.292 0.222-0.932 0.226v1.552c0.404 0 0.719-0.078 0.991-0.243 0.343-0.212 0.985-0.431 1.745-0.042 0.766 0.389 1.413 0.389 2.056 0.05 0.65-0.338 1.009-0.399 1.796-0.059 0.763 0.388 1.517 0.353 2.165 0.017z m5.672-3.768c-1.32-0.724-1.895 0.154-2.601 0.15V8.585l1.091-2.527c0.167-0.386 0.001-0.741-0.395-0.914l-0.663-0.268V2.694H10.582V1.544H8.795V0H6.571v1.544h-1.787v1.15h-1.284v2.182l-0.664 0.268c-0.397 0.173-0.563 0.528-0.394 0.915l1.091 2.526V12.093c-0.708 0.003-1.311-0.861-2.602-0.143 0 0-0.37 0.208-0.931 0.218v1.511c0.438-0.034 0.648-0.104 0.982-0.286 0.35-0.201 0.994-0.392 1.754 0 0.766 0.386 1.413 0.386 2.056 0.05 0.651-0.341 1.215-0.357 1.821-0.05 0.762 0.386 1.361 0.39 2.132 0.009 0.619-0.317 1.177-0.299 1.821 0.041 0.651 0.336 1.297 0.336 2.064-0.05 0.759-0.392 1.4-0.195 1.754 0 0.312 0.164 0.531 0.251 0.982 0.286V12.16c-0.574-0.015-0.932-0.218-0.932-0.218zM10.918 4.473l-3.239-1.334-3.231 1.334v-0.881h1.275v-1.133h3.919v1.133h1.276v0.881z"></path></g><g id="SvgjsG11253"><use xlink:href="#SvgjsG11226" transform="translate(0, 0) scale(1.9)" fill="rgba(205, 205, 205, 1)"></use><use xlink:href="#SvgjsG11227" transform="translate(0, 57) scale(1.9)" fill="rgba(209, 209, 209, 1)"></use><use xlink:href="#SvgjsG11228" transform="translate(0, 114) scale(1.9)" fill="rgba(205, 205, 205, 1)"></use><use xlink:href="#SvgjsG11229" transform="translate(0, 171) scale(1.9)" fill="rgba(209, 209, 209, 1)"></use><use xlink:href="#SvgjsG11230" transform="translate(0, 228) scale(1.9)" fill="rgba(209, 209, 209, 1)"></use><use xlink:href="#SvgjsG11231" transform="translate(0, 285) scale(1.9)" fill="rgba(209, 209, 209, 1)"></use><use xlink:href="#SvgjsG11228" transform="translate(0, 342) scale(1.9)" fill="rgba(209, 209, 209, 1)"></use><use xlink:href="#SvgjsG11226" transform="translate(0, 399) scale(1.9)" fill="rgba(209, 209, 209, 1)"></use><use xlink:href="#SvgjsG11232" transform="translate(0, 456) scale(1.9)" fill="rgba(205, 205, 205, 1)"></use><use xlink:href="#SvgjsG11233" transform="translate(0, 513) scale(1.9)" fill="rgba(209, 209, 209, 1)"></use><use xlink:href="#SvgjsG11234" transform="translate(57, 0) scale(1.9)" fill="rgba(209, 209, 209, 1)"></use><use xlink:href="#SvgjsG11231" transform="translate(57, 57) scale(1.9)" fill="rgba(205, 205, 205, 1)"></use><use xlink:href="#SvgjsG11228" transform="translate(57, 114) scale(1.9)" fill="rgba(209, 209, 209, 1)"></use><use xlink:href="#SvgjsG11235" transform="translate(57, 171) scale(1.9)" fill="rgba(205, 205, 205, 1)"></use><use xlink:href="#SvgjsG11234" transform="translate(57, 228) scale(1.9)" fill="rgba(205, 205, 205, 1)"></use><use xlink:href="#SvgjsG11236" transform="translate(57, 285) scale(1.9)" fill="rgba(205, 205, 205, 1)"></use><use xlink:href="#SvgjsG11237" transform="translate(57, 342) scale(1.9)" fill="rgba(209, 209, 209, 1)"></use><use xlink:href="#SvgjsG11238" transform="translate(57, 399) scale(1.9)" fill="rgba(205, 205, 205, 1)"></use><use xlink:href="#SvgjsG11239" transform="translate(57, 456) scale(1.9)" fill="rgba(205, 205, 205, 1)"></use><use xlink:href="#SvgjsG11240" transform="translate(57, 513) scale(1.9)" fill="rgba(209, 209, 209, 1)"></use><use xlink:href="#SvgjsG11241" transform="translate(114, 0) scale(1.9)" fill="rgba(205, 205, 205, 1)"></use><use xlink:href="#SvgjsG11237" transform="translate(114, 57) scale(1.9)" fill="rgba(209, 209, 209, 1)"></use><use xlink:href="#SvgjsG11242" transform="translate(114, 114) scale(1.9)" fill="rgba(205, 205, 205, 1)"></use><use xlink:href="#SvgjsG11226" transform="translate(114, 171) scale(1.9)" fill="rgba(209, 209, 209, 1)"></use><use xlink:href="#SvgjsG11228" transform="translate(114, 228) scale(1.9)" fill="rgba(209, 209, 209, 1)"></use><use xlink:href="#SvgjsG11237" transform="translate(114, 285) scale(1.9)" fill="rgba(209, 209, 209, 1)"></use><use xlink:href="#SvgjsG11226" transform="translate(114, 342) scale(1.9)" fill="rgba(205, 205, 205, 1)"></use><use xlink:href="#SvgjsG11228" transform="translate(114, 399) scale(1.9)" fill="rgba(209, 209, 209, 1)"></use><use xlink:href="#SvgjsG11242" transform="translate(114, 456) scale(1.9)" fill="rgba(209, 209, 209, 1)"></use><use xlink:href="#SvgjsG11229" transform="translate(114, 513) scale(1.9)" fill="rgba(209, 209, 209, 1)"></use><use xlink:href="#SvgjsG11243" transform="translate(171, 0) scale(1.9)" fill="rgba(205, 205, 205, 1)"></use><use xlink:href="#SvgjsG11244" transform="translate(171, 57) scale(1.9)" fill="rgba(209, 209, 209, 1)"></use><use xlink:href="#SvgjsG11231" transform="translate(171, 114) scale(1.9)" fill="rgba(209, 209, 209, 1)"></use><use xlink:href="#SvgjsG11230" transform="translate(171, 171) scale(1.9)" fill="rgba(209, 209, 209, 1)"></use><use xlink:href="#SvgjsG11235" transform="translate(171, 228) scale(1.9)" fill="rgba(205, 205, 205, 1)"></use><use xlink:href="#SvgjsG11245" transform="translate(171, 285) scale(1.9)" fill="rgba(205, 205, 205, 1)"></use><use xlink:href="#SvgjsG11238" transform="translate(171, 342) scale(1.9)" fill="rgba(205, 205, 205, 1)"></use><use xlink:href="#SvgjsG11243" transform="translate(171, 399) scale(1.9)" fill="rgba(205, 205, 205, 1)"></use><use xlink:href="#SvgjsG11246" transform="translate(171, 456) scale(1.9)" fill="rgba(209, 209, 209, 1)"></use><use xlink:href="#SvgjsG11244" transform="translate(171, 513) scale(1.9)" fill="rgba(209, 209, 209, 1)"></use><use xlink:href="#SvgjsG11244" transform="translate(228, 0) scale(1.9)" fill="rgba(209, 209, 209, 1)"></use><use xlink:href="#SvgjsG11230" transform="translate(228, 57) scale(1.9)" fill="rgba(205, 205, 205, 1)"></use><use xlink:href="#SvgjsG11240" transform="translate(228, 114) scale(1.9)" fill="rgba(205, 205, 205, 1)"></use><use xlink:href="#SvgjsG11232" transform="translate(228, 171) scale(1.9)" fill="rgba(205, 205, 205, 1)"></use><use xlink:href="#SvgjsG11230" transform="translate(228, 228) scale(1.9)" fill="rgba(209, 209, 209, 1)"></use><use xlink:href="#SvgjsG11247" transform="translate(228, 285) scale(1.9)" fill="rgba(209, 209, 209, 1)"></use><use xlink:href="#SvgjsG11248" transform="translate(228, 342) scale(1.9)" fill="rgba(205, 205, 205, 1)"></use><use xlink:href="#SvgjsG11238" transform="translate(228, 399) scale(1.9)" fill="rgba(209, 209, 209, 1)"></use><use xlink:href="#SvgjsG11233" transform="translate(228, 456) scale(1.9)" fill="rgba(205, 205, 205, 1)"></use><use xlink:href="#SvgjsG11249" transform="translate(228, 513) scale(1.9)" fill="rgba(205, 205, 205, 1)"></use><use xlink:href="#SvgjsG11239" transform="translate(285, 0) scale(1.9)" fill="rgba(205, 205, 205, 1)"></use><use xlink:href="#SvgjsG11246" transform="translate(285, 57) scale(1.9)" fill="rgba(205, 205, 205, 1)"></use><use xlink:href="#SvgjsG11250" transform="translate(285, 114) scale(1.9)" fill="rgba(205, 205, 205, 1)"></use><use xlink:href="#SvgjsG11243" transform="translate(285, 171) scale(1.9)" fill="rgba(205, 205, 205, 1)"></use><use xlink:href="#SvgjsG11237" transform="translate(285, 228) scale(1.9)" fill="rgba(205, 205, 205, 1)"></use><use xlink:href="#SvgjsG11251" transform="translate(285, 285) scale(1.9)" fill="rgba(205, 205, 205, 1)"></use><use xlink:href="#SvgjsG11243" transform="translate(285, 342) scale(1.9)" fill="rgba(205, 205, 205, 1)"></use><use xlink:href="#SvgjsG11237" transform="translate(285, 399) scale(1.9)" fill="rgba(209, 209, 209, 1)"></use><use xlink:href="#SvgjsG11249" transform="translate(285, 456) scale(1.9)" fill="rgba(209, 209, 209, 1)"></use><use xlink:href="#SvgjsG11238" transform="translate(285, 513) scale(1.9)" fill="rgba(209, 209, 209, 1)"></use><use xlink:href="#SvgjsG11227" transform="translate(342, 0) scale(1.9)" fill="rgba(209, 209, 209, 1)"></use><use xlink:href="#SvgjsG11226" transform="translate(342, 57) scale(1.9)" fill="rgba(205, 205, 205, 1)"></use><use xlink:href="#SvgjsG11239" transform="translate(342, 114) scale(1.9)" fill="rgba(205, 205, 205, 1)"></use><use xlink:href="#SvgjsG11247" transform="translate(342, 171) scale(1.9)" fill="rgba(209, 209, 209, 1)"></use><use xlink:href="#SvgjsG11248" transform="translate(342, 228) scale(1.9)" fill="rgba(209, 209, 209, 1)"></use><use xlink:href="#SvgjsG11239" transform="translate(342, 285) scale(1.9)" fill="rgba(205, 205, 205, 1)"></use><use xlink:href="#SvgjsG11232" transform="translate(342, 342) scale(1.9)" fill="rgba(205, 205, 205, 1)"></use><use xlink:href="#SvgjsG11235" transform="translate(342, 399) scale(1.9)" fill="rgba(209, 209, 209, 1)"></use><use xlink:href="#SvgjsG11237" transform="translate(342, 456) scale(1.9)" fill="rgba(209, 209, 209, 1)"></use><use xlink:href="#SvgjsG11245" transform="translate(342, 513) scale(1.9)" fill="rgba(209, 209, 209, 1)"></use><use xlink:href="#SvgjsG11234" transform="translate(399, 0) scale(1.9)" fill="rgba(205, 205, 205, 1)"></use><use xlink:href="#SvgjsG11252" transform="translate(399, 57) scale(1.9)" fill="rgba(209, 209, 209, 1)"></use><use xlink:href="#SvgjsG11248" transform="translate(399, 114) scale(1.9)" fill="rgba(205, 205, 205, 1)"></use><use xlink:href="#SvgjsG11234" transform="translate(399, 171) scale(1.9)" fill="rgba(205, 205, 205, 1)"></use><use xlink:href="#SvgjsG11237" transform="translate(399, 228) scale(1.9)" fill="rgba(209, 209, 209, 1)"></use><use xlink:href="#SvgjsG11233" transform="translate(399, 285) scale(1.9)" fill="rgba(209, 209, 209, 1)"></use><use xlink:href="#SvgjsG11230" transform="translate(399, 342) scale(1.9)" fill="rgba(209, 209, 209, 1)"></use><use xlink:href="#SvgjsG11242" transform="translate(399, 399) scale(1.9)" fill="rgba(205, 205, 205, 1)"></use><use xlink:href="#SvgjsG11249" transform="translate(399, 456) scale(1.9)" fill="rgba(209, 209, 209, 1)"></use><use xlink:href="#SvgjsG11241" transform="translate(399, 513) scale(1.9)" fill="rgba(209, 209, 209, 1)"></use><use xlink:href="#SvgjsG11250" transform="translate(456, 0) scale(1.9)" fill="rgba(209, 209, 209, 1)"></use><use xlink:href="#SvgjsG11247" transform="translate(456, 57) scale(1.9)" fill="rgba(209, 209, 209, 1)"></use><use xlink:href="#SvgjsG11247" transform="translate(456, 114) scale(1.9)" fill="rgba(209, 209, 209, 1)"></use><use xlink:href="#SvgjsG11244" transform="translate(456, 171) scale(1.9)" fill="rgba(205, 205, 205, 1)"></use><use xlink:href="#SvgjsG11252" transform="translate(456, 228) scale(1.9)" fill="rgba(209, 209, 209, 1)"></use><use xlink:href="#SvgjsG11226" transform="translate(456, 285) scale(1.9)" fill="rgba(209, 209, 209, 1)"></use><use xlink:href="#SvgjsG11241" transform="translate(456, 342) scale(1.9)" fill="rgba(209, 209, 209, 1)"></use><use xlink:href="#SvgjsG11248" transform="translate(456, 399) scale(1.9)" fill="rgba(205, 205, 205, 1)"></use><use xlink:href="#SvgjsG11240" transform="translate(456, 456) scale(1.9)" fill="rgba(209, 209, 209, 1)"></use><use xlink:href="#SvgjsG11240" transform="translate(456, 513) scale(1.9)" fill="rgba(205, 205, 205, 1)"></use><use xlink:href="#SvgjsG11243" transform="translate(513, 0) scale(1.9)" fill="rgba(209, 209, 209, 1)"></use><use xlink:href="#SvgjsG11248" transform="translate(513, 57) scale(1.9)" fill="rgba(209, 209, 209, 1)"></use><use xlink:href="#SvgjsG11229" transform="translate(513, 114) scale(1.9)" fill="rgba(209, 209, 209, 1)"></use><use xlink:href="#SvgjsG11231" transform="translate(513, 171) scale(1.9)" fill="rgba(209, 209, 209, 1)"></use><use xlink:href="#SvgjsG11242" transform="translate(513, 228) scale(1.9)" fill="rgba(209, 209, 209, 1)"></use><use xlink:href="#SvgjsG11251" transform="translate(513, 285) scale(1.9)" fill="rgba(205, 205, 205, 1)"></use><use xlink:href="#SvgjsG11226" transform="translate(513, 342) scale(1.9)" fill="rgba(205, 205, 205, 1)"></use><use xlink:href="#SvgjsG11228" transform="translate(513, 399) scale(1.9)" fill="rgba(205, 205, 205, 1)"></use><use xlink:href="#SvgjsG11232" transform="translate(513, 456) scale(1.9)" fill="rgba(209, 209, 209, 1)"></use><use xlink:href="#SvgjsG11236" transform="translate(513, 513) scale(1.9)" fill="rgba(205, 205, 205, 1)"></use></g></defs></svg>