<svg xmlns="http://www.w3.org/2000/svg" version="1.1" xmlns:xlink="http://www.w3.org/1999/xlink" xmlns:svgjs="http://svgjs.com/svgjs" width="1440" height="560" preserveAspectRatio="none" viewBox="0 0 1440 560"><g mask="url(&quot;#SvgjsMask1073&quot;)" fill="none"><rect width="1440" height="560" x="0" y="0" fill="rgba(130, 19, 52, 1)"></rect><path d="M -2251.007780361432,527 C -1963.01,451 -1387.01,174.2 -811.0077803614324,147 C -235.01,119.8 178.79,409.2 628.9922196385676,391 C 1079.19,372.8 1277.8,123 1440,56" stroke="rgba(114, 17, 46, 0.79)" stroke-width="2"></path><path d="M -1009.7764577908297,146 C -721.78,202.8 -145.78,451.4 430.2235422091704,430 C 1006.22,408.6 1668.27,21 1870.2235422091703,39 C 2072.18,57 1526.04,423.8 1440,520" stroke="rgba(255, 255, 255, 0.1)" stroke-width="2"></path><path d="M -2649.4577027534115,240 C -2361.46,279.2 -1785.46,435 -1209.4577027534117,436 C -633.46,437 -299.35,269 230.5422972465883,245 C 760.43,221 1198.11,301.8 1440,316" stroke="rgba(114, 17, 46, 1)" stroke-width="2"></path><path d="M -709.464460994082,311 C -421.46,295.6 154.54,195 730.535539005918,234 C 1306.54,273 2028.64,524.4 2170.535539005918,506 C 2312.43,487.6 1586.11,214.8 1440,142" stroke="rgba(114, 17, 46, 1)" stroke-width="2"></path><path d="M -567.2713859879146,275 C -279.27,321.6 296.73,532.2 872.7286140120854,508 C 1448.73,483.8 2199.27,197.6 2312.7286140120855,154 C 2426.18,110.4 1614.55,262.8 1440,290" stroke="rgba(114, 17, 46, 1)" stroke-width="2"></path><path d="M -1265.5001610125964,469 C -977.5,417.6 -401.5,212.2 174.49983898740356,212 C 750.5,211.8 1361.4,491 1614.4998389874036,468 C 1867.6,445 1474.9,171.2 1440,97" stroke="rgba(114, 17, 46, 1)" stroke-width="2"></path><path d="M -875.6830174668961,436 C -587.68,361 -11.68,69.8 564.3169825331039,61 C 1140.32,52.2 1829.18,391.6 2004.3169825331038,392 C 2179.45,392.4 1552.86,128.8 1440,63" stroke="rgba(114, 17, 46, 1)" stroke-width="2"></path><path d="M -1321.5302935373304,98 C -1033.53,179 -457.53,476.4 118.4697064626695,503 C 694.47,529.6 1294.16,264.8 1558.4697064626696,231 C 1822.78,197.2 1463.69,313.4 1440,334" stroke="rgba(255, 255, 255, 0.1)" stroke-width="2"></path><path d="M -2402.427946064449,351 C -2114.43,305.2 -1538.43,97.8 -962.427946064449,122 C -386.43,146.2 -2.91,474.4 477.572053935551,472 C 958.06,469.6 1247.51,182.4 1440,110" stroke="rgba(255, 255, 255, 0.1)" stroke-width="2"></path><path d="M -669.3425783540292,208 C -381.34,252 194.66,446 770.6574216459708,428 C 1346.66,410 2076.79,146.8 2210.6574216459708,118 C 2344.53,89.2 1594.13,250.8 1440,284" stroke="rgba(114, 17, 46, 1)" stroke-width="2"></path></g><defs><mask id="SvgjsMask1073"><rect width="1440" height="560" fill="#ffffff"></rect></mask></defs></svg>