<svg xmlns="http://www.w3.org/2000/svg" version="1.1" xmlns:xlink="http://www.w3.org/1999/xlink" xmlns:svgjs="http://svgjs.com/svgjs" width="1440" height="560" preserveAspectRatio="none" viewBox="0 0 1440 560"><g mask="url(&quot;#SvgjsMask1076&quot;)" fill="none"><rect width="1440" height="560" x="0" y="0" fill="rgba(130, 19, 52, 1)"></rect><path d="M -2524.3396038714945,535 C -2236.34,466.8 -1660.34,216.6 -1084.3396038714943,194 C -508.34,171.4 -149.21,412.4 355.6603961285057,422 C 860.53,431.6 1223.13,278 1440,242" stroke="rgba(114, 17, 46, 0.79)" stroke-width="2"></path><path d="M -220.7363974126672,13 C 67.26,86.6 643.26,336.4 1219.2636025873328,381 C 1795.26,425.6 2615.12,218.4 2659.2636025873326,236 C 2703.41,253.6 1683.85,422.4 1440,469" stroke="rgba(114, 17, 46, 1)" stroke-width="2"></path><path d="M -2371.750553515652,65 C -2083.75,160.2 -1507.75,508.8 -931.7505535156519,541 C -355.75,573.2 33.9,227.8 508.24944648434814,226 C 982.6,224.2 1253.65,470.8 1440,532" stroke="rgba(114, 17, 46, 0.79)" stroke-width="2"></path><path d="M -6.952191877094265,384 C 281.05,346.4 857.05,176.4 1433.0478081229057,196 C 2009.05,215.6 2871.66,476.2 2873.0478081229057,482 C 2874.44,487.8 1726.61,276.4 1440,225" stroke="rgba(114, 17, 46, 1)" stroke-width="2"></path><path d="M -1256.5934565940013,32 C -968.59,113 -392.59,389.8 183.4065434059987,437 C 759.41,484.2 1372.09,252.2 1623.4065434059987,268 C 1874.73,283.8 1476.68,466.4 1440,516" stroke="rgba(114, 17, 46, 1)" stroke-width="2"></path><path d="M -2134.0195504005314,370 C -1846.02,328 -1270.02,130.4 -694.0195504005316,160 C -118.02,189.6 319.18,497.4 745.9804495994684,518 C 1172.78,538.6 1301.2,314 1440,263" stroke="rgba(114, 17, 46, 0.79)" stroke-width="2"></path><path d="M -1175.085300359267,23 C -887.09,82.8 -311.09,314.6 264.914699640733,322 C 840.91,329.4 1469.9,28 1704.914699640733,60 C 1939.93,92 1492.98,397.6 1440,482" stroke="rgba(114, 17, 46, 1)" stroke-width="2"></path><path d="M -1534.4971421049195,208 C -1246.5,242.6 -670.5,380.6 -94.49714210491948,381 C 481.5,381.4 1038.6,221.6 1345.5028578950805,210 C 1652.4,198.4 1421.1,300.4 1440,323" stroke="rgba(114, 17, 46, 1)" stroke-width="2"></path><path d="M -1401.091047906899,530 C -1113.09,458.2 -537.09,194.6 38.90895209310106,171 C 614.91,147.4 1198.69,419.4 1478.908952093101,412 C 1759.13,404.6 1447.78,189.6 1440,134" stroke="rgba(255, 255, 255, 0.1)" stroke-width="2"></path><path d="M -133.71487606802998,410 C 154.29,368.4 730.29,194.2 1306.28512393197,202 C 1882.29,209.8 2719.54,445.8 2746.28512393197,449 C 2773.03,452.2 1701.26,264.2 1440,218" stroke="rgba(114, 17, 46, 0.79)" stroke-width="2"></path></g><defs><mask id="SvgjsMask1076"><rect width="1440" height="560" fill="#ffffff"></rect></mask></defs></svg>