<svg xmlns="http://www.w3.org/2000/svg" version="1.1" xmlns:xlink="http://www.w3.org/1999/xlink" xmlns:svgjs="http://svgjs.com/svgjs" width="1440" height="560" preserveAspectRatio="none" viewBox="0 0 1440 560"><g mask="url(&quot;#SvgjsMask1078&quot;)" fill="none"><rect width="1440" height="560" x="0" y="0" fill="rgba(130, 19, 52, 1)"></rect><path d="M -1008.5560587701559,70 C -720.56,143.6 -144.56,448.4 431.44394122984414,438 C 1007.44,427.6 1669.73,5.8 1871.443941229844,18 C 2073.16,30.2 1526.29,402.8 1440,499" stroke="rgba(114, 17, 46, 0.79)" stroke-width="2"></path><path d="M -223.44533162399125,332 C 64.55,283 640.55,59.2 1216.5546683760087,87 C 1792.55,114.8 2611.87,472.4 2656.5546683760085,471 C 2701.24,469.6 1683.31,158.2 1440,80" stroke="rgba(114, 17, 46, 1)" stroke-width="2"></path><path d="M -2879.5317320300883,82 C -2591.53,169.6 -2015.53,498.4 -1439.5317320300883,520 C -863.53,541.6 -575.44,223.4 0.4682679699117216,190 C 576.37,156.6 1152.09,320.4 1440,353" stroke="rgba(114, 17, 46, 1)" stroke-width="2"></path><path d="M -482.549795985988,154 C -194.55,217 381.45,465.2 957.450204014012,469 C 1533.45,472.8 2300.94,210 2397.450204014012,173 C 2493.96,136 1631.49,261.8 1440,284" stroke="rgba(255, 255, 255, 0.1)" stroke-width="2"></path><path d="M -188.40357635473356,130 C 99.6,193.8 675.6,450.8 1251.5964236452664,449 C 1827.6,447.2 2653.92,134.2 2691.5964236452664,121 C 2729.28,107.8 1690.32,330.6 1440,383" stroke="rgba(114, 17, 46, 1)" stroke-width="2"></path><path d="M -1218.4901323688516,413 C -930.49,386.2 -354.49,272.2 221.50986763114844,279 C 797.51,285.8 1417.81,479.4 1661.5098676311484,447 C 1905.21,414.6 1484.3,183 1440,117" stroke="rgba(114, 17, 46, 1)" stroke-width="2"></path><path d="M -305.28335451402177,262 C -17.28,267.2 558.72,298.4 1134.7166454859782,288 C 1710.72,277.6 2513.66,180.2 2574.716645485978,210 C 2635.77,239.8 1666.94,391.6 1440,437" stroke="rgba(255, 255, 255, 0.1)" stroke-width="2"></path><path d="M -1310.3143347126666,319 C -1022.31,306.6 -446.31,241.8 129.68566528733334,257 C 705.69,272.2 1307.62,442.6 1569.6856652873334,395 C 1831.75,347.4 1465.94,94.2 1440,19" stroke="rgba(114, 17, 46, 1)" stroke-width="2"></path><path d="M -1578.5964231401183,88 C -1290.6,131.6 -714.6,322.8 -138.59642314011836,306 C 437.4,289.2 985.68,-6.8 1301.4035768598817,4 C 1617.12,14.8 1412.28,288.8 1440,360" stroke="rgba(114, 17, 46, 1)" stroke-width="2"></path><path d="M -2768.040037081246,338 C -2480.04,282 -1904.04,51.8 -1328.0400370812456,58 C -752.04,64.2 -441.65,371.6 111.9599629187544,369 C 665.57,366.4 1174.39,109.8 1440,45" stroke="rgba(255, 255, 255, 0.1)" stroke-width="2"></path></g><defs><mask id="SvgjsMask1078"><rect width="1440" height="560" fill="#ffffff"></rect></mask></defs></svg>